# Blender v2.68 (sub 0) OBJ File: ''
# www.blender.org
mtllib mysthomeRock1.mtl
o Landsmaller_Cube.027
v 0.611744 1.554881 -0.513722
v -0.170697 1.554881 -0.749416
v -1.088725 1.487464 -1.188647
v -0.010982 1.554881 0.268718
v -0.170697 0.554881 -0.749416
v -1.088725 0.554881 -1.188647
v 0.611744 0.554881 -0.513722
v -0.633707 1.603503 1.051159
v -1.416147 1.487464 0.428434
v -1.416147 0.554881 0.428434
v -1.678576 0.762733 0.092319
v -1.487265 0.762733 -0.852533
v -0.633707 0.554881 1.051159
v 0.771459 1.554881 0.891443
v 1.394184 1.554881 0.109003
v 0.771459 0.554881 0.891443
v 1.394184 0.554881 0.109003
v 0.992673 0.554881 -0.992352
v 1.460478 0.554881 -0.369627
v 0.081457 1.854935 1.326763
v 0.148734 0.554881 1.673884
v -0.520992 -0.246320 0.909535
v -0.741732 -0.246320 0.351777
v -0.603932 -0.990687 0.565133
v -0.485353 -0.990687 0.864755
v -0.651799 -0.246320 -0.241292
v -0.094041 -0.246320 -0.462033
v 0.499029 -0.246320 -0.372099
v 0.719769 -0.246320 0.185659
v 0.181172 -0.990687 0.475896
v 0.062593 -0.990687 0.176274
v -0.255999 -0.990687 0.127962
v 0.629835 -0.246320 0.778729
v 0.072078 -0.246320 0.999469
v -0.166761 -0.990687 0.913067
v 0.132861 -0.990687 0.794487
v 0.097045 -1.547283 0.546278
v 0.125307 -1.547283 0.359907
v -0.555621 -0.990687 0.246542
v -0.130431 -1.547283 0.156372
v -0.305706 -1.547283 0.225739
v -0.333967 -1.547283 0.412110
v -0.264600 -1.547283 0.587384
v -0.078229 -1.547283 0.615646
v -0.095892 -2.183230 0.460250
v -0.039225 -2.183230 0.437824
v 0.055940 -1.547283 0.184633
v -0.030089 -2.183230 0.377570
v -0.052515 -2.183230 0.320904
v -0.112769 -2.183230 0.311767
v -0.156145 -2.183230 0.451113
v -0.178572 -2.183230 0.394447
v -0.169435 -2.183230 0.334193
v -0.222145 -2.711963 0.534041
v 1.487523 0.926059 -1.341213
v 1.689383 0.926059 -0.930147
v 1.460478 1.554881 -0.369627
v 0.992673 1.554881 -0.992352
v 1.830793 1.267381 -1.515043
v 1.781740 1.267381 -1.303672
v 1.487523 1.554881 -1.341213
v 1.689383 1.554881 -0.930147
v 1.781740 1.554881 -1.303672
v 1.737500 1.554881 -1.674264
v -1.928275 1.061848 -0.234367
v -1.844380 1.061848 -0.648712
v -1.487265 1.347028 -0.852533
v -1.678576 1.347028 0.092319
v -1.844380 1.318078 -0.648712
v -1.928275 1.318078 -0.234367
vt 0.613306 0.411525
vt 0.626899 0.438670
vt 0.648818 0.469483
vt 0.588532 0.439310
vt 0.549125 0.529696
vt 0.513634 0.527578
vt 0.513521 0.490856
vt 0.549013 0.492974
vt 0.483836 0.526631
vt 0.483723 0.489909
vt 0.563758 0.467095
vt 0.591553 0.491774
vt 0.416363 0.552943
vt 0.452666 0.602525
vt 0.435465 0.602316
vt 0.414253 0.573346
vt 0.558301 0.670493
vt 0.549125 0.634793
vt 0.580453 0.629657
vt 0.589629 0.665356
vt 0.560737 0.414631
vt 0.585511 0.386846
vt 0.366820 0.501679
vt 0.384668 0.469485
vt 0.411491 0.487602
vt 0.393643 0.519796
vt 0.493954 0.571958
vt 0.457897 0.571902
vt 0.457177 0.549318
vt 0.484588 0.556594
vt 0.549125 0.442668
vt 0.351182 0.489000
vt 0.357846 0.451368
vt 0.616655 0.659466
vt 0.611781 0.624520
vt 0.547998 0.606141
vt 0.530485 0.615744
vt 0.524835 0.587177
vt 0.534243 0.582019
vt 0.529627 0.457974
vt 0.509651 0.459706
vt 0.487354 0.459537
vt 0.439623 0.463274
vt 0.421887 0.455390
vt 0.424583 0.422377
vt 0.434111 0.426613
vt 0.510388 0.625411
vt 0.549125 0.642302
vt 0.493954 0.668524
vt 0.565417 0.599265
vt 0.576348 0.599372
vt 0.501678 0.428522
vt 0.513656 0.428613
vt 0.402351 0.444550
vt 0.477349 0.456229
vt 0.452666 0.486566
vt 0.598001 0.593922
vt 0.570544 0.572266
vt 0.582176 0.569339
vt 0.393989 0.436547
vt 0.414088 0.416554
vt 0.432046 0.402616
vt 0.438185 0.406022
vt 0.524387 0.427683
vt 0.508842 0.408080
vt 0.515119 0.407536
vt 0.509476 0.570711
vt 0.514979 0.567694
vt 0.592217 0.565918
vt 0.578599 0.547389
vt 0.584472 0.545388
vt 0.616692 0.587554
vt 0.514039 0.592371
vt 0.571282 0.524226
vt 0.573181 0.523579
vt 0.443759 0.408500
vt 0.448636 0.384070
vt 0.450438 0.384871
vt 0.501835 0.408027
vt 0.505344 0.383760
vt 0.507609 0.383777
vt 0.571794 0.549101
vt 0.569082 0.524780
vt 0.503160 0.573749
vt 0.497840 0.549552
vt 0.499620 0.548577
vt 0.509639 0.383601
vt 0.446651 0.382968
vt 0.495799 0.550535
vt 0.562330 0.506889
vt 0.494074 0.529696
vt 0.452569 0.362913
vt 0.510884 0.362913
vt 0.459184 0.529696
vt 0.474340 0.536953
vt 0.427244 0.496303
vt 0.409395 0.528497
vt 0.371558 0.554066
vt 0.371672 0.591145
vt 0.352638 0.590022
vt 0.352524 0.552943
vt 0.602654 0.381369
vt 0.628460 0.394528
vt 0.439382 0.519587
vt 0.452372 0.525101
vt 0.452666 0.541666
vt 0.445668 0.537673
vt 0.467127 0.571958
vt 0.493954 0.597034
vt 0.483963 0.611283
vt 0.467094 0.595515
vt 0.621774 0.369417
vt 0.638133 0.374188
vt 0.428158 0.539832
vt 0.440536 0.546929
vt 0.452534 0.552943
vt 0.479973 0.618774
vt 0.468860 0.613831
vt 0.634896 0.363655
vt 0.648774 0.362913
vt 0.418053 0.602571
vt 0.408752 0.589867
vt 0.639205 0.486732
vt 0.605745 0.499757
vt 0.453204 0.609038
vt 0.453318 0.571958
vt 0.467094 0.580996
vt 0.467027 0.602661
vt 0.371672 0.552943
vt 0.408752 0.553057
vt 0.402033 0.564625
vt 0.380368 0.564559
vt 0.401691 0.591557
vt 0.392190 0.591528
vt 0.392401 0.575877
vt 0.401902 0.575907
vt 0.359045 0.612602
vt 0.359111 0.591145
vt 0.371672 0.600711
vt 0.371643 0.610120
vt 0.634012 0.501177
vt 0.619338 0.506889
vn -0.163396 0.856624 -0.489303
vn 0.231117 0.703146 -0.672384
vn -0.146367 0.604022 -0.783380
vn -0.023713 0.996551 -0.079348
vn 0.272347 -0.230964 -0.934049
vn -0.275887 -0.444685 -0.852107
vn 0.116550 -0.474349 -0.872555
vn -0.461135 0.704154 0.539872
vn -0.585498 0.671804 0.453688
vn -0.804468 -0.404492 0.434950
vn -0.817805 -0.501907 0.281472
vn -0.690878 -0.514054 -0.508316
vn -0.587634 -0.190039 0.786462
vn 0.576250 0.681173 0.451552
vn 0.696738 0.652181 0.298624
vn 0.747642 -0.185675 0.637593
vn 0.895444 -0.395764 0.203711
vn -0.301309 -0.716392 -0.629261
vn 0.676046 -0.734489 0.058504
vn 0.066347 0.817652 0.571825
vn 0.112125 -0.152959 0.981842
vn -0.598682 -0.275033 0.752251
vn -0.910459 -0.381237 0.160314
vn -0.944426 -0.294229 0.146428
vn -0.594928 -0.295358 0.747520
vn -0.551530 -0.625629 -0.551653
vn 0.067415 -0.515244 -0.854366
vn 0.478561 -0.501724 -0.720573
vn 0.829463 -0.548082 -0.107456
vn 0.926084 -0.371166 -0.067568
vn 0.563738 -0.424726 -0.708335
vn -0.141972 -0.371166 -0.917631
vn 0.720237 -0.449721 0.528184
vn 0.129673 -0.331309 0.934538
vn 0.069216 -0.294229 0.953215
vn 0.654561 -0.372387 0.657888
vn 0.785363 -0.274178 0.554979
vn 0.979797 -0.151891 -0.130070
vn -0.788018 -0.372387 -0.490219
vn -0.093112 -0.151891 -0.983978
vn -0.717063 -0.274178 -0.640767
vn -0.931272 -0.353252 0.088717
vn -0.563952 -0.423994 0.708609
vn 0.122532 -0.353252 0.927427
vn 0.133396 -0.072207 0.988403
vn 0.789026 -0.229621 0.569781
vn 0.616810 -0.137486 -0.774987
vn 0.944762 -0.303720 -0.123020
vn 0.582781 -0.352245 -0.732261
vn -0.092105 -0.303720 -0.948271
vn -0.622272 -0.037568 0.781884
vn -0.993133 -0.072207 0.091800
vn -0.732322 -0.229621 -0.641011
vn -0.206488 -0.943388 0.259468
vn 0.041414 -0.599445 -0.799310
vn 0.882473 -0.469192 0.032472
vn 0.653432 0.736259 0.175695
vn -0.505325 0.676534 -0.535630
vn 0.602985 -0.302622 -0.738090
vn 0.975158 -0.220496 0.020295
vn -0.406598 0.710990 -0.573687
vn 0.687155 0.691122 0.223945
vn 0.708762 0.699667 0.089846
vn 0.204474 0.514634 -0.832636
vn -0.941374 -0.304544 0.144993
vn -0.810816 -0.304544 -0.499802
vn -0.571368 0.596210 -0.563921
vn -0.724021 0.578845 0.375134
vn -0.663350 0.589648 -0.460707
vn -0.790307 0.589648 0.166387
usemtl Material.004
s 1
f 1/1/1 2/2/2 3/3/3 4/4/4
f 3/5/3 2/6/2 5/7/5 6/8/6
f 2/6/2 1/9/1 7/10/7 5/7/5
f 8/11/8 4/4/4 3/3/3 9/12/9
f 6/13/6 10/14/10 11/15/11 12/16/12
f 9/17/9 10/18/10 13/19/13 8/20/8
f 1/1/1 4/4/4 14/21/14 15/22/15
f 14/23/14 16/24/16 17/25/17 15/26/15
f 17/27/17 7/28/7 18/29/18 19/30/19
f 8/11/8 20/31/20 14/21/14 4/4/4
f 14/23/14 20/32/20 21/33/21 16/24/16
f 20/34/20 8/20/8 13/19/13 21/35/21
f 22/36/22 23/37/23 24/38/24 25/39/25
f 26/40/26 6/8/6 5/7/5 27/41/27
f 27/41/27 5/7/5 7/10/7 28/42/28
f 28/43/28 29/44/29 30/45/30 31/46/31
f 26/47/26 23/37/23 10/48/10 6/49/6
f 23/50/23 22/51/22 13/19/13 10/18/10
f 27/41/27 28/42/28 31/52/31 32/53/32
f 33/54/33 29/44/29 17/25/17 16/24/16
f 29/55/29 28/42/28 7/10/7 17/56/17
f 34/57/34 22/51/22 25/58/25 35/59/35
f 33/54/33 16/24/16 21/33/21 34/60/34
f 34/57/34 21/35/21 13/19/13 22/51/22
f 30/45/30 36/61/36 37/62/37 38/63/38
f 39/64/39 32/53/32 40/65/40 41/66/41
f 25/39/25 24/38/24 42/67/42 43/68/43
f 36/69/36 35/59/35 44/70/44 37/71/37
f 33/72/33 34/57/34 35/59/35 36/69/36
f 26/40/26 27/41/27 32/53/32 39/64/39
f 29/44/29 33/54/33 36/61/36 30/45/30
f 23/37/23 26/47/26 39/73/39 24/38/24
f 37/71/37 44/70/44 45/74/45 46/75/46
f 47/76/47 38/63/38 48/77/48 49/78/49
f 40/65/40 47/79/47 49/80/49 50/81/50
f 44/70/44 43/82/43 51/83/51 45/74/45
f 24/38/24 39/73/39 41/84/41 42/67/42
f 35/59/35 25/58/25 43/82/43 44/70/44
f 32/53/32 31/52/31 47/79/47 40/65/40
f 31/46/31 30/45/30 38/63/38 47/76/47
f 43/68/43 42/67/42 52/85/52 51/86/51
f 41/66/41 40/65/40 50/81/50 53/87/53
f 38/63/38 37/62/37 46/88/46 48/77/48
f 42/67/42 41/84/41 53/89/53 52/85/52
f 45/74/45 51/83/51 54/90/54
f 52/85/52 53/89/53 54/91/54
f 48/77/48 46/88/46 54/92/54
f 53/87/53 50/81/50 54/93/54
f 50/81/50 49/80/49 54/93/54
f 49/78/49 48/77/48 54/92/54
f 46/75/46 45/74/45 54/90/54
f 51/86/51 52/85/52 54/91/54
f 19/30/19 18/29/18 55/94/55 56/95/56
f 15/26/15 17/25/17 19/96/19 57/97/57
f 7/98/7 1/99/1 58/100/58 18/101/18
f 1/1/1 15/22/15 57/102/57 58/103/58
f 56/104/56 55/105/55 59/106/59 60/107/60
f 18/108/18 58/109/58 61/110/61 55/111/55
f 58/103/58 57/102/57 62/112/62 61/113/61
f 57/97/57 19/96/19 56/104/56 62/114/62
f 63/115/63 60/107/60 59/106/59 64/116/64
f 55/111/55 61/110/61 64/117/64 59/118/59
f 61/113/61 62/112/62 63/119/63 64/120/64
f 62/114/62 56/104/56 60/107/60 63/115/63
f 12/16/12 11/15/11 65/121/65 66/122/66
f 9/12/9 3/3/3 67/123/67 68/124/68
f 3/125/3 6/126/6 12/127/12 67/128/67
f 10/129/10 9/130/9 68/131/68 11/132/11
f 69/133/69 66/134/66 65/135/65 70/136/70
f 67/137/67 12/138/12 66/139/66 69/140/69
f 68/124/68 67/123/67 69/141/69 70/142/70
f 11/132/11 68/131/68 70/136/70 65/135/65
